<?xml version="1.0" encoding="utf-8"?>
<!-- Generator: Adobe Illustrator 15.0.0, SVG Export Plug-In  -->
<!DOCTYPE svg PUBLIC "-//W3C//DTD SVG 1.1//EN" "http://www.w3.org/Graphics/SVG/1.1/DTD/svg11.dtd" [
	<!ENTITY ns_flows "http://ns.adobe.com/Flows/1.0/">
]>
<svg version="1.1"
	 xmlns="http://www.w3.org/2000/svg" xmlns:xlink="http://www.w3.org/1999/xlink" xmlns:a="http://ns.adobe.com/AdobeSVGViewerExtensions/3.0/"
	 x="0px" y="0px" width="50px" height="50px" viewBox="-1 -1 50 50" overflow="visible" enable-background="new -1 -1 50 50"
	 xml:space="preserve">
<defs>
</defs>
<circle fill="#FF7C27" cx="24.107" cy="19.829" r="7.063"/>
<path fill="#FF7C27" d="M9.39,26.182c0,0-1.216,4.383-3.143,6.441c-1.926,2.057-4.057,3.934-4.057,3.934v8.588
	c0,0,0.305,1.967,2.536,2.057c2.231,0.09,36.81,0,36.81,0s2.941,0.27,3.145-2.504c0.202-2.773,0-8.051,0-8.051
	s-3.853-3.129-4.563-4.205c-0.71-1.072-1.318-1.877-1.926-3.398c-0.608-1.52-0.812-3.131-0.812-3.131s-0.203-0.535-1.114-0.805
	c-0.587-0.172-0.913,0.359-1.115,0.896c-0.203,0.535-0.335,1.615-2.231,3.129c-2.13,1.699-3.447,2.594-6.49,3.221
	c-3.086,0.635-8.62-0.447-10.243-1.521c-1.622-1.074-4.158-4.293-4.36-4.828c-0.203-0.537-0.673-1.033-1.216-0.984
	C9.594,25.107,9.39,26.182,9.39,26.182z"/>
<path fill="#FF7C27" d="M23.121,0c0,0-9.38,0.101-13.943,2.802c-4.563,2.703-5.07,2.904-5.07,2.904s-1.69,0.899-2.536,1.801
	C0.726,8.41,0.135,10.31,0.05,11.311c-0.083,1.001-0.083,4.606,0.17,6.007c0.254,1.402,0.506,2.103,0.76,2.403
	c0.254,0.3,0.339,0.7,1.184,0.601c0.845-0.101,2.281-0.5,3.887-1.203c1.606-0.699,3.887-2.2,4.479-2.502
	c0.591-0.3,1.436-1.202,1.436-1.202s0.254-2.1-0.169-2.502c-0.422-0.399-1.098-0.899-1.267-1.501c-0.17-0.601-0.761-2.302,0-3.103
	c0.76-0.801,2.281-1.102,3.379-0.902c1.099,0.201,7.268,0.702,8.873,0.702c1.606,0,8.029-0.702,9.381-0.801
	c1.351-0.101,2.534-0.3,3.126-0.101c0.593,0.2,1.507,0.743,1.774,1.801c0.508,2.003-0.337,2.703-0.845,3.404
	c-0.508,0.7-1.014,1.102-0.93,2.002c0.085,0.9-0.254,1.301,0.93,2.002c1.184,0.701,4.31,2.701,5.915,3.203
	c1.606,0.5,2.704,0.7,3.55,0.5c0.845-0.2,1.689-2.603,1.689-4.404c0-1.803-0.168-4.605-0.591-6.106
	c-0.422-1.501-1.269-2.302-2.367-3.104c-1.097-0.8-5.577-3.604-8.196-4.504C33.599,1.102,28.359,0,27.43,0S23.121,0,23.121,0z"/>
</svg>
