<?xml version="1.0" encoding="utf-8"?>
<!-- Generator: Adobe Illustrator 15.0.0, SVG Export Plug-In  -->
<!DOCTYPE svg PUBLIC "-//W3C//DTD SVG 1.1//EN" "http://www.w3.org/Graphics/SVG/1.1/DTD/svg11.dtd" [
	<!ENTITY ns_flows "http://ns.adobe.com/Flows/1.0/">
]>
<svg version="1.1"
	 xmlns="http://www.w3.org/2000/svg" xmlns:xlink="http://www.w3.org/1999/xlink" xmlns:a="http://ns.adobe.com/AdobeSVGViewerExtensions/3.0/"
	 x="0px" y="0px" width="215px" height="215px" viewBox="-3.453 0.047 215 215"
	 overflow="visible" enable-background="new -3.453 0.047 215 215" xml:space="preserve">
<defs>
</defs>
<path fill="#010102" stroke="#010102" stroke-width="0.0938" d="M99.664,0.047h6.83c3.737,1.001,7.796,1.534,10.89,4.003
	c2.255,1.535,4.639,3.069,6.572,5.071c24.356,25.286,48.777,50.505,73.199,75.792c4.703,5.004,8.053,11.409,9.086,18.348v7.405
	c-0.84,3.002-1.354,6.072-2.643,8.874c-1.997,3.203-3.866,6.539-6.508,9.14c-24.164,25.086-48.391,50.107-72.554,75.192
	c-4.897,5.004-11.083,8.607-17.914,9.675h-6.894c-6.702-1.067-12.823-4.537-17.656-9.341C57.587,178.787,33.102,153.5,8.617,128.08
	c-1.869-1.935-3.286-4.337-4.769-6.605c-2.319-3.136-2.706-7.139-3.801-10.809v-7.339c1.031-7.339,4.704-13.944,9.794-19.082
	C34.004,59.227,58.168,34.207,82.331,9.121c2.384-2.469,5.348-4.271,8.183-6.206C93.349,1.448,96.571,0.914,99.664,0.047z"/>
<path fill="#FFFF02" stroke="#FFFF02" stroke-width="0.0938" d="M84.392,17.26c5.671-5.805,13.983-9.274,21.973-7.806
	c6.25,0.467,11.921,4.003,16.238,8.474c22.101,22.951,44.265,45.836,66.368,68.787c2.127,2.936,4.64,5.805,5.734,9.407
	c1.998,4.537,1.934,9.741,1.354,14.612c-0.58,5.671-4.06,10.274-7.604,14.345c-23.003,23.751-46.006,47.569-68.946,71.389
	c-1.675,1.535-3.737,2.336-5.67,3.402c-3.222,2.002-7.152,1.867-10.695,2.735c-3.158-0.733-6.38-0.868-9.408-2.068
	c-2.513-1.335-5.219-2.336-7.281-4.403c-22.23-23.085-44.46-46.036-66.69-69.053c-2.255-2.136-4.059-4.738-6.057-7.207
	c-3.995-5.737-4.382-13.143-3.416-19.882c1.16-5.204,4.06-9.674,7.346-13.677C39.932,63.296,62.098,40.278,84.392,17.26z"/>
<path fill="#010102" stroke="#010102" stroke-width="0.0938" d="M77.85,61.636c2.246-0.414,4.839-0.104,6.484,1.652
	c1.846,1.704,3.043,4.493,2.345,7.024c-0.25,2.737-2.544,4.854-4.988,5.526c-4.439,1.601-9.826-2.841-9.029-7.748
	C73.212,65.251,75.207,62.668,77.85,61.636z"/>
<path fill="#010102" stroke="#010102" stroke-width="0.0938" d="M46.326,77.853c0.499-1.808,1.098-3.77,2.794-4.751
	c5.237,0.051,10.424,0.051,15.612,0.051c1.047-0.051,2.045,0.207,3.042,0.413c2.045,3.409,4.54,6.508,6.684,9.865
	c1.098,1.704,2.145,3.874,1.147,5.888c-2.893,5.526-5.886,11-8.729,16.579c6.534,4.959,12.57,10.536,19.104,15.442
	c1.895-2.116,4.29-4.44,7.283-3.717c1.096,0.413,2.394,0.568,3.191,1.497c1.048,1.188,1.946,2.531,2.644,3.977
	c1.047-0.516,2.394-0.723,3.442-0.103c1.795,1.187,2.693,3.46,2.744,5.578c1.097,0.518,1.995,1.241,2.594,2.272
	c2.793-0.206,4.937,1.912,6.035,4.339c-12.42,0.104-24.791-0.051-37.21,0.155c-3.042-0.309-6.134,0.258-9.228-0.206
	c0.648-0.775,1.197-1.652,1.746-2.531c1.446-0.671,2.942-1.396,4.588-1.396c0.848-0.206,1.696-0.516,1.297-1.652
	c0.848-1.343,1.945-2.84,3.741-2.479c0.948-1.962,2.494-3.512,4.339-4.597c-5.586-4.751-11.223-9.399-16.81-14.152
	c-0.249-0.671-1.097-0.206-0.897,0.312c1.247,1.393,2.693,2.943,2.594,4.957c0.099,1.292-0.799,2.376-1.248,3.512
	c-1.446,3.564-3.542,6.87-5.188,10.33c-0.998,2.169-2.095,4.339-3.292,6.404c-1.297,1.034-3.242,1.755-4.838,0.981
	c-0.998-0.775-1.596-1.962-1.945-3.151c0.998-3.77,3.142-6.972,4.539-10.587c1.097-2.479,2.344-4.906,3.492-7.334
	c-2.943-3.77-5.836-7.592-8.929-11.259c-0.05,3.822,0.15,7.696-0.05,11.517c-1.447,5.992-3.042,11.983-4.539,18.026
	c-0.449,2.53-3.841,3.925-5.836,2.22c-1.795-0.981-1.396-3.306-1.296-5.061c1.147-4.855,2.345-9.659,3.492-14.514
	c0.2-5.783-0.1-11.567,0.149-17.353c0-2.324,2.295-3.202,3.392-4.854c-1.197-0.413-2.045-1.446-1.995-2.737
	c-1.147-0.827-2.195-1.808-3.442-2.479c-0.499-1.085,0.2-1.963,1.147-2.325c0.848,0.826,1.795,1.549,2.743,2.169
	C45.08,84.05,45.628,80.952,46.326,77.853z"/>
<path fill="#FFFF02" stroke="#FFFF02" stroke-width="0.0938" d="M59.971,86.981c2.32,0.067,4.575,0.067,6.83,0.067
	c-2.771,3.069-5.928,5.805-8.57,9.007C58.554,92.985,59.391,90.05,59.971,86.981z"/>
<path fill="#FFFF02" stroke="#FFFF02" stroke-width="0.0938" d="M57.101,97.582c2.744-1.292,5.487-2.479,8.23-3.771
	c-0.998,2.635-2.694,4.804-3.691,7.386C60.043,100.061,58.498,98.925,57.101,97.582z"/>
<rect x="98.954" y="66.497" fill="none" width="132.092" height="54.644"/>
<text transform="matrix(0.9658 0 0 1 98.9541 83.7666)"><tspan x="0" y="0" font-family="'Helvetica'" font-size="24.0187">mobile</tspan><tspan x="0" y="28.822" font-family="'Helvetica'" font-size="24.0187">first</tspan></text>
</svg>
