<?xml version="1.0" encoding="utf-8"?>
<!-- Generator: Adobe Illustrator 19.2.1, SVG Export Plug-In . SVG Version: 6.00 Build 0)  -->
<svg version="1.1" id="Layer_1" xmlns="http://www.w3.org/2000/svg" xmlns:xlink="http://www.w3.org/1999/xlink" x="0px" y="0px"
	 viewBox="0 0 113.3 119.7" style="enable-background:new 0 0 113.3 119.7;" xml:space="preserve">
<style type="text/css">
	.st0{fill:#F26822;}
	.st1{opacity:0.62;}
	.st2{fill:#FEEF5B;}
	.st3{fill:#AF4A25;}
	.st4{filter:url(#Adobe_OpacityMaskFilter);}
	.st5{fill:url(#SVGID_2_);}
	.st6{opacity:0.96;mask:url(#SVGID_1_);fill:#FFFFFF;}
	.st7{opacity:0.5;fill:#F7BF1D;}
	.st8{fill:#010101;}
	.st9{opacity:0.5;fill:#FEF067;}
	.st10{opacity:0.85;fill:#F7BF1D;}
</style>
<path class="st0" d="M76.5,86.4c0,0,7.6-8.9,14.1-11c9-2.9,19,4.2,21.7,8.5c2.7,4.2,0,11.9-7.1,13.6c-7.1,1.7-37.5-1.3-37.5-1.3
	L76.5,86.4z"/>
<path class="st0" d="M36.9,84.8c0,0-7.6-9.7-14.1-12.1c-9-3.2-19,4.6-21.7,9.3c-2.7,4.6,0,13,7.1,14.8c7.1,1.9,37.5-1.4,37.5-1.4
	L36.9,84.8z"/>
<path class="st0" d="M32,73.9c0,18.3,13.9,32,26.1,32c12.1,0,26.1-13.7,26.1-32c0-18.3-15.7-39.1-26.1-39.6
	C45.6,33.7,32,55.7,32,73.9z"/>
<path class="st0" d="M72.7,96.7c0,0,6.5,3.3,9.2,3.3c2.7,0,3.8-2.2,7.1-1.1c3.3,1.1,5.4,6,2.7,10.9c-2.7,4.9-1.9,10-6,9.2
	c-8.7-1.6-17.9-14.1-17.4-17.4C68.9,98.4,72.7,96.7,72.7,96.7z"/>
<path class="st0" d="M48.4,97.4c0,0-6.5,3.3-9.2,3.3c-2.7,0-3.8-2.2-7.1-1.1c-3.3,1.1-5.4,6-2.7,10.9c2.7,4.9,1.9,10,6,9.2
	c8.7-1.6,17.9-14.1,17.4-17.4C52.2,99,48.4,97.4,48.4,97.4z"/>
<g class="st1">
	<g>
		<path class="st2" d="M78.4,77.9c0.5,0.1,0.8,0.2,1.2,0.4c-0.7-0.9-1.7-1.6-2.9-1.7c-2.6-0.4-4.4,1.7-4.5,3.9c0,1,0,1.8,0.3,2.5
			C73.1,80.2,76,77.6,78.4,77.9z"/>
	</g>
</g>
<g>
	<g>
		<path class="st3" d="M76.1,89.8l0.5-0.5c-1.5-1-2.5-2.8-2.5-4.9c0-3.2,2.4-5.8,5.4-5.8c0.7,0,1.4,0.2,2,0.4
			c-0.9-0.7-2.1-1.1-3.3-1.1c-3.2,0-5.7,2.8-5.7,6.2C72.5,86.7,74,88.9,76.1,89.8z"/>
	</g>
</g>
<path class="st0" d="M64.3,36.9c0,0-3.3-5.4-3.6-9.8c-0.4-4.3,2.2-14.1,1.8-17.9c-0.4-3.8-2.7-6.2-3.3-7.6C58-1.5,57,0.5,57,2.7
	c0,2.2,1.5,8.1-1.5,11.4c-2.9,3.3-6.2,4.3-6.6,9.2c-0.4,4.9,3.2,16.8,3.2,16.8L64.3,36.9z"/>
<defs>
	<filter id="Adobe_OpacityMaskFilter" filterUnits="userSpaceOnUse" x="31.9" y="34.6" width="52.4" height="71.7">
		<feColorMatrix  type="matrix" values="1 0 0 0 0  0 1 0 0 0  0 0 1 0 0  0 0 0 1 0"/>
	</filter>
</defs>
<mask maskUnits="userSpaceOnUse" x="31.9" y="34.6" width="52.4" height="71.7" id="SVGID_1_">
	<g class="st4">
		
			<radialGradient id="SVGID_2_" cx="-4552.4556" cy="96.1451" r="23.2117" gradientTransform="matrix(-1.0059 0 0 1 -4520.5718 0)" gradientUnits="userSpaceOnUse">
			<stop  offset="0" style="stop-color:#FFFFFF"/>
			<stop  offset="0" style="stop-color:#FFFFFF"/>
			<stop  offset="9.137517e-02" style="stop-color:#E4E4E4"/>
			<stop  offset="0.4303" style="stop-color:#838383"/>
			<stop  offset="0.7047" style="stop-color:#3D3D3D"/>
			<stop  offset="0.9008" style="stop-color:#111111"/>
			<stop  offset="1" style="stop-color:#000000"/>
		</radialGradient>
		<path class="st5" d="M31.5,74c0,18.3,14,32,26.2,32c12.2,0,26.2-13.7,26.2-32c0-18.3-15.8-39.1-26.2-39.6
			C45.3,33.7,31.5,55.7,31.5,74z"/>
	</g>
</mask>
<path class="st6" d="M31.9,74.3c0,18.3,14,32,26.2,32c12.2,0,26.2-13.7,26.2-32c0-18.3-15.8-39.1-26.2-39.6
	C45.7,34,31.9,56,31.9,74.3z"/>
<path class="st7" d="M76.5,85.1c0,2.3,1.5,4.2,3.4,4.2c1.9,0,3.4-1.9,3.4-4.2c0-2.3-1.3-3.7-3.1-3.3C78,82.4,76.5,82.7,76.5,85.1z"
	/>
<path class="st8" d="M78.9,84.7c-0.3,1.4,0.1,2.7,1.1,2.9c0.9,0.2,2.5-0.7,2.9-2.1c0.3-1.4-0.7-2.6-1.6-2.9
	C80.3,82.4,79.3,83.3,78.9,84.7z"/>
<path class="st9" d="M75.5,85.6c0,0-1.6-0.5-1.9,1.6s2.4,4.3,3.5,4.1c1.1-0.3,1.9-2.2,0.8-2.2C76.9,89.1,75.5,85.6,75.5,85.6z"/>
<path class="st10" d="M76.9,79.8c-0.8,0.6-1.3,1.3-1,1.5c0.3,0.3,1.7,0.3,2.5-0.2c1.4-0.9,3-1.1,2.3-1.8C80,78.6,78.1,79,76.9,79.8z
	"/>
<g class="st1">
	<g>
		<path class="st2" d="M36.4,78.6c2.4-0.3,5.3,2.3,5.9,5.1c0.2-0.7,0.3-1.5,0.3-2.5C42.5,79,40.6,77,38,77.3
			c-1.2,0.2-2.2,0.8-2.9,1.7C35.5,78.8,35.9,78.7,36.4,78.6z"/>
	</g>
</g>
<g>
	<g>
		<path class="st3" d="M40.6,85.1c0,2.1-1,3.9-2.5,4.9l0.5,0.5c2.1-0.9,3.7-3.1,3.7-5.8c0-3.4-2.6-6.2-5.7-6.2
			c-1.2,0-2.4,0.4-3.3,1.2c0.6-0.3,1.3-0.4,2-0.4C38.2,79.3,40.6,81.9,40.6,85.1z"/>
	</g>
</g>
<path class="st7" d="M38.3,85.8c0,2.3-1.5,4.2-3.4,4.2c-1.9,0-3.4-1.9-3.4-4.2c0-2.3,1.3-3.7,3.1-3.3C36.8,83,38.3,83.4,38.3,85.8z"
	/>
<path class="st8" d="M35.9,85.4c0.3,1.4-0.1,2.7-1.1,2.9c-0.9,0.2-2.5-0.7-2.9-2.1c-0.3-1.4,0.7-2.6,1.6-2.9
	C34.5,83.1,35.5,84,35.9,85.4z"/>
<path class="st9" d="M39.3,86.3c0,0,1.6-0.5,1.9,1.6s-2.4,4.3-3.5,4.1c-1.1-0.3-1.9-2.2-0.8-2.2C37.9,89.8,39.3,86.3,39.3,86.3z"/>
<path class="st10" d="M37.9,80.5c0.8,0.6,1.3,1.3,1,1.5c-0.4,0.3-1.7,0.3-2.5-0.2c-1.4-0.9-3-1.1-2.3-1.8
	C34.8,79.3,36.7,79.7,37.9,80.5z"/>
</svg>
