<?xml version="1.0" encoding="utf-8"?>
<!-- Generator: Adobe Illustrator 18.1.1, SVG Export Plug-In . SVG Version: 6.00 Build 0)  -->
<svg version="1.1" id="Layer_1" xmlns="http://www.w3.org/2000/svg" xmlns:xlink="http://www.w3.org/1999/xlink" x="0px" y="0px"
	 viewBox="-272 395.9 50 50" enable-background="new -272 395.9 50 50" xml:space="preserve">
<rect x="-272" y="395.9" width="50" height="50"/>
<rect x="-268" y="402.9" fill="#FF7C27" width="42" height="5"/>
<rect x="-268" y="432.9" fill="#FF7C27" width="42" height="5"/>
<g>
	<path fill="#FF7C27" d="M-267.4,414.2h2.1v1.3c0.4-0.5,0.8-0.9,1.2-1.2c0.4-0.3,0.9-0.4,1.4-0.4c0.5,0,1,0.2,1.4,0.5
		c0.4,0.3,0.8,0.8,1,1.5c0.3-0.7,0.7-1.2,1.2-1.5c0.5-0.3,1-0.5,1.6-0.5c0.6,0,1.1,0.2,1.6,0.6c0.5,0.4,0.8,0.9,1,1.4
		s0.3,1.6,0.3,2.9v6.5h-2.1v-5.7c0-1.3-0.1-2.1-0.4-2.6c-0.2-0.4-0.6-0.7-1.1-0.7c-0.4,0-0.7,0.1-1,0.4c-0.3,0.3-0.5,0.7-0.6,1.1
		c-0.1,0.5-0.2,1.3-0.2,2.3v5h-2.1V420c0-1-0.1-1.7-0.2-2.2c-0.1-0.4-0.3-0.8-0.5-1c-0.2-0.2-0.5-0.3-0.8-0.3c-0.3,0-0.7,0.1-1,0.4
		c-0.3,0.3-0.5,0.7-0.6,1.2c-0.1,0.5-0.2,1.3-0.2,2.4v5h-2.1V414.2z"/>
	<path fill="#FF7C27" d="M-244.3,420.6h-6.7c0.1,0.8,0.4,1.4,0.8,1.9c0.4,0.5,1,0.7,1.6,0.7c0.8,0,1.5-0.4,2-1.1l1.8,1.1
		c-0.4,0.8-1,1.5-1.6,1.9c-0.6,0.4-1.3,0.6-2.2,0.6c-1.3,0-2.4-0.6-3.2-1.7c-0.8-1.1-1.2-2.5-1.2-4.2c0-1.7,0.4-3.1,1.2-4.2
		c0.8-1.1,1.9-1.7,3.1-1.7c1.3,0,2.4,0.6,3.2,1.7c0.8,1.1,1.2,2.6,1.2,4.5L-244.3,420.6z M-246.4,418.4c-0.1-0.6-0.4-1.1-0.8-1.5
		c-0.4-0.4-0.9-0.6-1.4-0.6c-0.6,0-1.1,0.2-1.5,0.7c-0.3,0.3-0.5,0.8-0.8,1.4H-246.4z"/>
	<path fill="#FF7C27" d="M-242.6,414.2h2.1v1.1c0.5-0.5,0.9-0.9,1.3-1.1s0.8-0.3,1.2-0.3c0.8,0,1.5,0.4,2.1,1.2
		c0.5,0.7,0.7,1.6,0.7,2.9v7.4h-2.1v-4.9c0-1.3,0-2.2-0.1-2.7c-0.1-0.4-0.2-0.8-0.5-1c-0.2-0.2-0.5-0.3-0.8-0.3
		c-0.4,0-0.8,0.2-1.1,0.6c-0.3,0.4-0.5,0.9-0.6,1.6c-0.1,0.3-0.1,1.1-0.1,2.3v4.5h-2.1V414.2z"/>
	<path fill="#FF7C27" d="M-233.1,414.2h2.1v5.4c0,1,0.1,1.8,0.2,2.2c0.1,0.4,0.3,0.7,0.5,0.9c0.2,0.2,0.5,0.3,0.9,0.3
		s0.6-0.1,0.9-0.3c0.2-0.2,0.4-0.5,0.5-1c0.1-0.3,0.1-1,0.1-2.1v-5.5h2.1v4.7c0,1.9-0.1,3.3-0.3,4c-0.3,0.9-0.7,1.5-1.2,2
		c-0.5,0.5-1.2,0.7-2.1,0.7c-0.9,0-1.7-0.3-2.2-0.8c-0.6-0.5-1-1.3-1.2-2.3c-0.2-0.7-0.2-1.9-0.2-3.7V414.2z"/>
</g>
</svg>
